<svg width="16" height="19" viewBox="0 0 16 19" fill="none" xmlns="http://www.w3.org/2000/svg">
<path d="M15.148 10.6403C14.9502 15.5381 12.3405 18.2253 8.13206 18.0553C3.92364 17.8854 0.672371 13.7772 0.87014 8.8794C1.06791 3.98161 3.47231 0.182555 7.68072 0.352487C11.8891 0.522419 15.3458 5.74249 15.148 10.6403Z" fill="#A67D59" fill-opacity="0.7"/>
<path d="M14.722 12.0323C15.173 14.0689 14.0305 15.4194 12.2505 16.5998C10.122 18.0097 8.06923 17.5046 6.17579 16.4593C1.60828 13.9419 -0.595791 9.21776 0.138899 4.04521C0.360387 2.4894 1.39219 1.59805 2.72112 1.00381C3.16139 0.806634 3.6773 0.739107 4.16619 0.703993C10.4084 0.252914 14.4005 3.89666 14.7193 10.3279C14.7436 10.8222 14.722 11.3192 14.722 12.0296V12.0323ZM12.7367 15.1655C13.6577 14.8171 13.936 14.1013 14.017 13.1721C14.2385 10.5899 13.6875 8.19946 12.6151 5.84953C10.5488 1.32794 8.2367 0.85255 3.35587 1.54672C1.94862 1.7466 0.968125 3.03502 0.781751 4.49089C0.187516 9.13673 2.49153 13.6637 6.59716 15.9218C8.76611 17.1157 11.1431 16.8213 12.7502 15.1628H12.7394L12.7367 15.1655Z" fill="#55463D"/>
<path d="M3.35059 2.6001C5.60868 4.02896 9.51983 12.3996 9.18219 14.944C7.41569 10.7465 6.157 6.30596 3.35059 2.6001Z" fill="#55463D"/>
<path d="M12.7502 15.1656C12.2532 15.3115 11.8481 15.3466 11.4915 14.801C9.27125 11.4112 8.10709 7.59184 6.94563 3.76713C6.89431 3.60236 6.99425 3.41869 7.30757 3.33496C7.8667 3.54024 7.79647 4.1804 7.93422 4.63147C9.03086 8.19959 10.2355 11.7164 12.3694 14.8334C12.4666 14.9766 12.5098 15.1629 12.734 15.1656H12.7475H12.7502Z" fill="#55463D"/>
</svg>
