<svg width="27" height="27" viewBox="0 0 27 27" fill="none" xmlns="http://www.w3.org/2000/svg">
<path d="M11.9133 17.6147C11.2659 16.7759 9.70611 16.8947 8.4295 17.8801C7.15289 18.8655 6.64286 20.3443 7.29032 21.1831C7.93778 22.0219 9.49754 21.9031 10.7742 20.9177C12.0508 19.9323 12.5608 18.4535 11.9133 17.6147Z" fill="#BD9F85"/>
<path d="M16.7905 17.9413C15.9168 17.3418 14.4688 17.9338 13.5564 19.2636C12.644 20.5933 12.6126 22.1573 13.4863 22.7568C14.3601 23.3563 15.808 22.7643 16.7204 21.4346C17.6328 20.1048 17.6642 18.5409 16.7905 17.9413Z" fill="#BD9F85"/>
<path d="M6.33172 7.98331C4.81424 8.52916 3.87481 9.77994 4.23347 10.777C4.59212 11.7741 6.11303 12.1399 7.63052 11.5941C9.14801 11.0482 10.0874 9.79742 9.72878 8.80034C9.37012 7.80326 7.84921 7.43747 6.33172 7.98331Z" fill="#BD9F85"/>
<path d="M8.90014 13.7109C8.25269 12.8721 6.69292 12.9909 5.41631 13.9763C4.13971 14.9617 3.62968 16.4405 4.27714 17.2793C4.92459 18.1181 6.48436 17.9993 7.76097 17.0139C9.03758 16.0285 9.5476 14.5497 8.90014 13.7109Z" fill="#BD9F85"/>
<path d="M20.8443 11.6047C20.7493 13.9567 19.3634 16.177 16.3878 16.0568C13.4121 15.9367 11.0769 13.9327 11.1719 11.5807C11.2669 9.22875 12.9313 7.425 15.9069 7.54516C18.8825 7.66531 20.9393 9.25278 20.8443 11.6047Z" fill="#BD9F85"/>
</svg>
