<svg width="31" height="53" viewBox="0 0 31 53" fill="none" xmlns="http://www.w3.org/2000/svg">
<path d="M27.3994 14.4612C26.2728 19.2317 23.1991 21.3729 19.1 20.4048C15.001 19.4367 12.5913 14.7846 13.718 10.0141C14.8447 5.24351 19.081 2.16102 23.1801 3.12911C27.2792 4.0972 28.5261 9.69065 27.3994 14.4612Z" fill="#BD9F85"/>
<path d="M19.5967 19.0657C19.7363 19.6766 19.3702 19.788 18.8723 19.9151C16.0245 20.6512 12.1997 18.108 11.6606 15.1121C10.9125 10.9591 12.0259 7.28088 14.4877 3.94303C15.5824 2.45771 17.1172 1.66646 18.8742 1.24513C19.7259 1.03954 20.4428 1.26619 21.1236 1.8213C24.4551 4.54013 26.075 8.02183 25.8451 12.3285C25.7709 13.7099 25.3763 14.9819 24.3385 15.9758C23.3972 16.8768 22.4644 17.7882 21.5232 18.6919C20.9835 19.2099 20.3849 19.3896 19.6935 18.9809C21.284 18.1632 22.4553 16.8452 23.7088 15.6241C24.5922 14.7632 25.0332 13.7138 25.1055 12.4973C25.3506 8.4469 23.9925 5.09573 20.825 2.49497C20.2055 1.98618 19.5797 1.8101 18.83 1.99556C17.4431 2.34326 16.1736 2.93245 15.2879 4.0854C12.7648 7.37695 11.4985 11.015 12.4208 15.1992C12.7281 16.5903 13.413 17.6751 14.9056 18.0423L14.875 18.0192C16.176 19.5966 17.8364 19.5439 19.5939 19.0631L19.5967 19.0657Z" fill="#55463D"/>
<path d="M14.9084 18.0449C16.6052 12.9415 19.1678 8.06987 19.0808 2.40492C19.7421 2.59315 19.7888 3.17792 19.8206 3.72543C19.8873 4.9041 19.6941 6.0711 19.3419 7.17931C18.2802 10.515 17.1502 13.8316 16.0421 17.1555C15.8601 17.6976 15.7452 18.3697 14.8833 18.0242L14.9112 18.0475L14.9084 18.0449Z" fill="#55463D"/>
<path d="M18.7786 17.4644C17.972 16.1654 20.2203 8.37839 22.441 5.94447C21.1452 10.0162 19.9366 13.8197 18.7786 17.4644Z" fill="#55463D"/>
<path d="M15.148 44.6403C14.9502 49.5381 12.3405 52.2253 8.13206 52.0553C3.92364 51.8854 0.672371 47.7772 0.87014 42.8794C1.06791 37.9816 3.47231 34.1826 7.68072 34.3525C11.8891 34.5224 15.3458 39.7425 15.148 44.6403Z" fill="#BD9F85"/>
<path d="M14.722 46.0323C15.173 48.0689 14.0305 49.4194 12.2505 50.5998C10.122 52.0097 8.06923 51.5046 6.17579 50.4593C1.60828 47.9419 -0.595791 43.2178 0.138899 38.0452C0.360387 36.4894 1.39219 35.598 2.72112 35.0038C3.16139 34.8066 3.6773 34.7391 4.16619 34.704C10.4084 34.2529 14.4005 37.8967 14.7193 44.3279C14.7436 44.8222 14.722 45.3192 14.722 46.0296V46.0323ZM12.7367 49.1655C13.6577 48.8171 13.936 48.1013 14.017 47.1721C14.2385 44.5899 13.6875 42.1995 12.6151 39.8495C10.5488 35.3279 8.2367 34.8526 3.35587 35.5467C1.94862 35.7466 0.968125 37.035 0.781751 38.4909C0.187516 43.1367 2.49153 47.6637 6.59716 49.9218C8.76611 51.1157 11.1431 50.8213 12.7502 49.1628H12.7394L12.7367 49.1655Z" fill="#55463D"/>
<path d="M3.35059 36.6001C5.60868 38.029 9.51983 46.3996 9.18219 48.944C7.41569 44.7465 6.157 40.306 3.35059 36.6001Z" fill="#55463D"/>
<path d="M12.7502 49.1656C12.2532 49.3115 11.8481 49.3466 11.4915 48.801C9.27125 45.4112 8.10709 41.5918 6.94563 37.7671C6.89431 37.6024 6.99425 37.4187 7.30757 37.335C7.8667 37.5402 7.79647 38.1804 7.93422 38.6315C9.03086 42.1996 10.2355 45.7164 12.3694 48.8334C12.4666 48.9766 12.5098 49.1629 12.734 49.1656H12.7475H12.7502Z" fill="#55463D"/>
</svg>
