<svg width="67" height="105" viewBox="0 0 67 105" fill="none" xmlns="http://www.w3.org/2000/svg">
<path d="M17.2471 96.7951C15.1254 101.214 11.6647 102.648 7.86785 100.825C4.07097 99.0016 2.71289 93.9416 4.8345 89.5228C6.95612 85.1039 11.754 82.9996 15.5509 84.8225C19.3478 86.6455 19.3687 92.3763 17.2471 96.7951Z" fill="#BD9F85"/>
<path d="M8.63949 99.6228C8.6451 100.249 8.2637 100.28 7.75012 100.298C4.8107 100.407 1.61884 97.1042 1.73354 94.0622C1.89157 89.8454 3.76648 86.4907 6.88564 83.7571C8.27283 82.5405 9.94141 82.0961 11.7479 82.0606C12.6239 82.042 13.2757 82.4169 13.8219 83.1048C16.4942 86.4737 17.3314 90.2214 16.1851 94.3791C15.817 95.7126 15.1592 96.8707 13.9328 97.6194C12.8204 98.298 11.7142 98.9887 10.6013 99.67C9.96326 100.061 9.34006 100.108 8.75217 99.5607C10.4809 99.1023 11.9072 98.0656 13.3929 97.1411C14.4401 96.4892 15.0955 95.5585 15.4265 94.3857C16.5328 90.4816 15.9234 86.9174 13.386 83.699C12.8897 83.0694 12.3162 82.7635 11.5441 82.7841C10.1149 82.827 8.74873 83.1308 7.63676 84.0674C4.4677 86.7427 2.45201 90.0255 2.45746 94.3101C2.45991 95.7347 2.8967 96.9409 4.27613 97.6191L4.25117 97.59C5.18446 99.4093 6.81763 99.7132 8.63731 99.6197L8.63949 99.6228Z" fill="#55463D"/>
<path d="M4.27826 97.6222C7.02808 93.0003 10.574 88.79 11.7014 83.2377C12.3072 83.5631 12.2276 84.1443 12.1415 84.6859C11.9544 85.8516 11.5159 86.9502 10.9346 87.9573C9.18356 90.9884 7.36988 93.9864 5.57604 96.9961C5.28223 97.4867 5.02621 98.1186 4.25815 97.5967L4.28044 97.6254L4.27826 97.6222Z" fill="#55463D"/>
<path d="M8.18301 97.8834C7.67317 96.4418 11.536 89.3165 14.2262 87.4143C12.089 91.1143 10.0943 94.5709 8.18301 97.8834Z" fill="#55463D"/>
<path d="M60.9259 13.6116C59.6645 18.3483 56.5314 20.4015 52.4614 19.3177C48.3914 18.2339 46.1146 13.5154 47.3759 8.77873C48.6373 4.04202 52.9592 1.08075 57.0292 2.16457C61.0992 3.24838 62.1872 8.8749 60.9259 13.6116Z" fill="#BD9F85"/>
<path d="M52.9958 17.9934C53.118 18.6081 52.7489 18.709 52.2476 18.822C49.3801 19.4771 45.6288 16.8266 45.1749 13.8166C44.5446 9.64408 45.7618 5.99889 48.3172 2.73211C49.4535 1.27839 51.0101 0.530931 52.7784 0.159537C53.6356 -0.0218414 54.3457 0.225028 55.0105 0.799193C58.2636 3.61129 59.7843 7.13749 59.4325 11.4359C59.3192 12.8146 58.8887 14.075 57.8232 15.039C56.8568 15.913 55.8985 16.7977 54.9321 17.6744C54.3779 18.1769 53.7744 18.3395 53.0949 17.9114C54.708 17.1391 55.9162 15.8548 57.2037 14.6697C58.1111 13.8342 58.5816 12.7976 58.6885 11.5837C59.0481 7.54187 57.7855 4.15358 54.693 1.46414C54.0881 0.938 53.4676 0.744264 52.7129 0.908418C51.3167 1.2167 50.031 1.76969 49.113 2.89709C46.4977 6.11585 45.1288 9.71662 45.9323 13.9252C46.2001 15.3245 46.8539 16.4282 48.3355 16.8376L48.3056 16.8136C49.5614 18.4273 51.2226 18.4216 52.993 17.9907L52.9958 17.9934Z" fill="#55463D"/>
<path d="M48.3382 16.8401C50.179 11.7868 52.8785 6.9897 52.952 1.32455C53.6077 1.53144 53.6378 2.1173 53.6541 2.66549C53.6874 3.84558 53.4612 5.00664 53.0777 6.10443C51.922 9.40866 50.6985 12.6919 49.4967 15.9831C49.2994 16.5199 49.1656 17.1884 48.3137 16.8187L48.341 16.8428L48.3382 16.8401Z" fill="#55463D"/>
<path d="M52.2233 16.3696C51.4539 15.0482 53.9219 7.32803 56.2106 4.95799C54.8 8.99137 53.4841 12.7591 52.2233 16.3696Z" fill="#55463D"/>
<path d="M61.5686 48.0138C59.1569 53.1297 55.2543 54.8493 50.991 52.8395C46.7277 50.8298 45.2268 45.0532 47.6385 39.9373C50.0503 34.8214 55.4614 32.3033 59.7247 34.3131C63.988 36.3229 63.9804 42.8978 61.5686 48.0138Z" fill="#BD9F85"/>
<path d="M53.0491 51.4644C54.9629 51.5095 56.4977 50.8445 57.7641 49.6468C60.4966 47.0619 62.4046 40.1197 58.5622 35.7791C57.0622 34.0835 53.8172 33.2705 51.7634 34.2194C45.9926 36.883 44.5281 46.5964 49.3675 50.9949C52.0631 46.1321 52.7831 40.9053 52.7615 35.4783C53.713 38.2172 53.1444 40.9562 52.719 43.6702C52.2876 46.435 51.2881 49.0366 50.0183 51.4451C50.5655 52.0643 51.2401 51.7672 51.7539 52.0393C51.1807 52.8053 49.7454 52.6512 48.8715 51.7495C44.1862 46.91 44.7457 38.5019 50.0219 34.4675C53.0388 32.16 57.1409 32.8396 59.4811 35.8061C62.9715 40.2347 61.2538 47.2547 58.2728 50.1196C56.7161 51.6164 54.8137 52.4784 52.3619 51.9974C52.8265 46.489 54.6552 41.552 57.1093 36.8023C55.5128 41.5382 53.7239 46.2133 53.0467 51.4632L53.0491 51.4644Z" fill="#55463D"/>
<path d="M42.148 69.6403C41.9502 74.5381 39.3405 77.2253 35.1321 77.0553C30.9236 76.8854 27.6724 72.7772 27.8701 67.8794C28.0679 62.9816 30.4723 59.1826 34.6807 59.3525C38.8891 59.5224 42.3458 64.7425 42.148 69.6403Z" fill="#BD9F85"/>
<path d="M41.722 71.0323C42.173 73.0689 41.0305 74.4194 39.2505 75.5998C37.122 77.0097 35.0692 76.5046 33.1758 75.4593C28.6083 72.9419 26.4042 68.2178 27.1389 63.0452C27.3604 61.4894 28.3922 60.598 29.7211 60.0038C30.1614 59.8066 30.6773 59.7391 31.1662 59.704C37.4084 59.2529 41.4005 62.8967 41.7193 69.3279C41.7436 69.8222 41.722 70.3192 41.722 71.0296V71.0323ZM39.7367 74.1655C40.6577 73.8171 40.936 73.1013 41.017 72.1721C41.2385 69.5899 40.6875 67.1995 39.6151 64.8495C37.5488 60.3279 35.2367 59.8526 30.3559 60.5467C28.9486 60.7466 27.9681 62.035 27.7818 63.4909C27.1875 68.1367 29.4915 72.6637 33.5972 74.9218C35.7661 76.1157 38.1431 75.8213 39.7502 74.1628H39.7394L39.7367 74.1655Z" fill="#55463D"/>
<path d="M30.3506 61.6001C32.6087 63.029 36.5198 71.3996 36.1822 73.944C34.4157 69.7465 33.157 65.306 30.3506 61.6001Z" fill="#55463D"/>
<path d="M39.7502 74.1656C39.2532 74.3115 38.8481 74.3466 38.4915 73.801C36.2713 70.4112 35.1071 66.5918 33.9456 62.7671C33.8943 62.6024 33.9943 62.4187 34.3076 62.335C34.8667 62.5402 34.7965 63.1804 34.9342 63.6315C36.0309 67.1996 37.2355 70.7164 39.3694 73.8334C39.4666 73.9766 39.5098 74.1629 39.734 74.1656H39.7475H39.7502Z" fill="#55463D"/>
</svg>
