<svg width="125" height="176" viewBox="0 0 125 176" fill="none" xmlns="http://www.w3.org/2000/svg">
<path d="M75.2471 96.7951C73.1254 101.214 69.6647 102.648 65.8679 100.825C62.071 99.0016 60.7129 93.9416 62.8345 89.5228C64.9561 85.1039 69.754 82.9996 73.5509 84.8225C77.3478 86.6455 77.3687 92.3763 75.2471 96.7951Z" fill="#A67D59" fill-opacity="0.7"/>
<path d="M66.6395 99.6228C66.6451 100.249 66.2637 100.28 65.7501 100.298C62.8107 100.407 59.6188 97.1042 59.7335 94.0622C59.8916 89.8454 61.7665 86.4907 64.8856 83.7571C66.2728 82.5405 67.9414 82.0961 69.7479 82.0606C70.6239 82.042 71.2757 82.4169 71.8219 83.1048C74.4942 86.4737 75.3314 90.2214 74.1851 94.3791C73.817 95.7126 73.1592 96.8707 71.9328 97.6194C70.8204 98.298 69.7142 98.9887 68.6013 99.67C67.9633 100.061 67.3401 100.108 66.7522 99.5607C68.4809 99.1023 69.9072 98.0656 71.3929 97.1411C72.4401 96.4892 73.0955 95.5585 73.4265 94.3857C74.5328 90.4816 73.9234 86.9174 71.386 83.699C70.8897 83.0694 70.3162 82.7635 69.5441 82.7841C68.1149 82.827 66.7487 83.1308 65.6368 84.0674C62.4677 86.7427 60.452 90.0255 60.4575 94.3101C60.4599 95.7347 60.8967 96.9409 62.2761 97.6191L62.2512 97.59C63.1845 99.4093 64.8176 99.7132 66.6373 99.6197L66.6395 99.6228Z" fill="#55463D"/>
<path d="M62.2783 97.6222C65.0281 93.0003 68.574 88.79 69.7014 83.2377C70.3072 83.5631 70.2276 84.1443 70.1415 84.6859C69.9544 85.8516 69.5159 86.9502 68.9346 87.9573C67.1836 90.9884 65.3699 93.9864 63.576 96.9961C63.2822 97.4867 63.0262 98.1186 62.2581 97.5967L62.2804 97.6254L62.2783 97.6222Z" fill="#55463D"/>
<path d="M66.183 97.8834C65.6732 96.4418 69.536 89.3165 72.2262 87.4143C70.089 91.1143 68.0943 94.5709 66.183 97.8834Z" fill="#55463D"/>
<path d="M27.3994 137.461C26.2728 142.232 23.1991 144.373 19.1 143.405C15.001 142.437 12.5913 137.785 13.718 133.014C14.8447 128.244 19.081 125.161 23.1801 126.129C27.2792 127.097 28.5261 132.691 27.3994 137.461Z" fill="#A67D59" fill-opacity="0.7"/>
<path d="M19.5967 142.066C19.7363 142.677 19.3702 142.788 18.8723 142.915C16.0245 143.651 12.1997 141.108 11.6606 138.112C10.9125 133.959 12.0259 130.281 14.4877 126.943C15.5824 125.458 17.1172 124.666 18.8742 124.245C19.7259 124.04 20.4428 124.266 21.1236 124.821C24.4551 127.54 26.075 131.022 25.8451 135.328C25.7709 136.71 25.3763 137.982 24.3385 138.976C23.3972 139.877 22.4644 140.788 21.5232 141.692C20.9835 142.21 20.3849 142.39 19.6935 141.981C21.284 141.163 22.4553 139.845 23.7088 138.624C24.5922 137.763 25.0332 136.714 25.1055 135.497C25.3506 131.447 23.9925 128.096 20.825 125.495C20.2055 124.986 19.5797 124.81 18.83 124.996C17.4431 125.343 16.1736 125.932 15.2879 127.085C12.7648 130.377 11.4985 134.015 12.4208 138.199C12.7281 139.59 13.413 140.675 14.9056 141.042L14.875 141.019C16.176 142.597 17.8364 142.544 19.5939 142.063L19.5967 142.066Z" fill="#55463D"/>
<path d="M14.9084 141.045C16.6052 135.942 19.1678 131.07 19.0808 125.405C19.7421 125.593 19.7888 126.178 19.8206 126.725C19.8873 127.904 19.6941 129.071 19.3419 130.179C18.2802 133.515 17.1502 136.832 16.0421 140.155C15.8601 140.698 15.7452 141.37 14.8833 141.024L14.9112 141.048L14.9084 141.045Z" fill="#55463D"/>
<path d="M18.7786 140.464C17.972 139.165 20.2203 131.378 22.441 128.944C21.1452 133.016 19.9366 136.82 18.7786 140.464Z" fill="#55463D"/>
<path d="M15.148 167.64C14.9502 172.538 12.3405 175.225 8.13206 175.055C3.92364 174.885 0.672371 170.777 0.87014 165.879C1.06791 160.982 3.47231 157.183 7.68072 157.352C11.8891 157.522 15.3458 162.742 15.148 167.64Z" fill="#A67D59" fill-opacity="0.7"/>
<path d="M14.722 169.032C15.173 171.069 14.0305 172.419 12.2505 173.6C10.122 175.01 8.06923 174.505 6.17579 173.459C1.60828 170.942 -0.595791 166.218 0.138899 161.045C0.360387 159.489 1.39219 158.598 2.72112 158.004C3.16139 157.807 3.6773 157.739 4.16619 157.704C10.4084 157.253 14.4005 160.897 14.7193 167.328C14.7436 167.822 14.722 168.319 14.722 169.03V169.032ZM12.7367 172.166C13.6577 171.817 13.936 171.101 14.017 170.172C14.2385 167.59 13.6875 165.199 12.6151 162.85C10.5488 158.328 8.2367 157.853 3.35587 158.547C1.94862 158.747 0.968125 160.035 0.781751 161.491C0.187516 166.137 2.49153 170.664 6.59716 172.922C8.76611 174.116 11.1431 173.821 12.7502 172.163H12.7394L12.7367 172.166Z" fill="#55463D"/>
<path d="M3.35059 159.6C5.60868 161.029 9.51983 169.4 9.18219 171.944C7.41569 167.747 6.157 163.306 3.35059 159.6Z" fill="#55463D"/>
<path d="M12.7502 172.166C12.2532 172.312 11.8481 172.347 11.4915 171.801C9.27125 168.411 8.10709 164.592 6.94563 160.767C6.89431 160.602 6.99425 160.419 7.30757 160.335C7.8667 160.54 7.79647 161.18 7.93422 161.631C9.03086 165.2 10.2355 168.716 12.3694 171.833C12.4666 171.977 12.5098 172.163 12.734 172.166H12.7475H12.7502Z" fill="#55463D"/>
<path d="M51.148 116.64C50.9502 121.538 48.3405 124.225 44.1321 124.055C39.9236 123.885 36.6724 119.777 36.8701 114.879C37.0679 109.982 39.4723 106.183 43.6807 106.352C47.8891 106.522 51.3458 111.742 51.148 116.64Z" fill="#A67D59" fill-opacity="0.7"/>
<path d="M50.722 118.032C51.173 120.069 50.0305 121.419 48.2505 122.6C46.122 124.01 44.0692 123.505 42.1758 122.459C37.6083 119.942 35.4042 115.218 36.1389 110.045C36.3604 108.489 37.3922 107.598 38.7211 107.004C39.1614 106.807 39.6773 106.739 40.1662 106.704C46.4084 106.253 50.4005 109.897 50.7193 116.328C50.7436 116.822 50.722 117.319 50.722 118.03V118.032ZM48.7367 121.166C49.6577 120.817 49.936 120.101 50.017 119.172C50.2385 116.59 49.6875 114.199 48.6151 111.85C46.5488 107.328 44.2367 106.853 39.3559 107.547C37.9486 107.747 36.9681 109.035 36.7818 110.491C36.1875 115.137 38.4915 119.664 42.5972 121.922C44.7661 123.116 47.1431 122.821 48.7502 121.163H48.7394L48.7367 121.166Z" fill="#55463D"/>
<path d="M39.3506 108.6C41.6087 110.029 45.5198 118.4 45.1822 120.944C43.4157 116.747 42.157 112.306 39.3506 108.6Z" fill="#55463D"/>
<path d="M48.7502 121.166C48.2532 121.312 47.8481 121.347 47.4915 120.801C45.2713 117.411 44.1071 113.592 42.9456 109.767C42.8943 109.602 42.9943 109.419 43.3076 109.335C43.8667 109.54 43.7965 110.18 43.9342 110.631C45.0309 114.2 46.2355 117.716 48.3694 120.833C48.4666 120.977 48.5098 121.163 48.734 121.166H48.7475H48.7502Z" fill="#55463D"/>
<path d="M118.926 13.6116C117.665 18.3483 114.531 20.4015 110.461 19.3177C106.391 18.2339 104.115 13.5154 105.376 8.77873C106.637 4.04202 110.959 1.08075 115.029 2.16457C119.099 3.24838 120.187 8.8749 118.926 13.6116Z" fill="#A67D59" fill-opacity="0.7"/>
<path d="M110.996 17.9934C111.118 18.6081 110.749 18.709 110.248 18.822C107.38 19.4771 103.629 16.8266 103.175 13.8166C102.545 9.64408 103.762 5.99889 106.317 2.73211C107.453 1.27839 109.01 0.530931 110.778 0.159537C111.636 -0.0218414 112.346 0.225028 113.011 0.799193C116.264 3.61129 117.784 7.13749 117.433 11.4359C117.319 12.8146 116.889 14.075 115.823 15.039C114.857 15.913 113.898 16.7977 112.932 17.6744C112.378 18.1769 111.774 18.3395 111.095 17.9114C112.708 17.1391 113.916 15.8548 115.204 14.6697C116.111 13.8342 116.582 12.7976 116.688 11.5837C117.048 7.54187 115.785 4.15358 112.693 1.46414C112.088 0.938 111.468 0.744264 110.713 0.908418C109.317 1.2167 108.031 1.76969 107.113 2.89709C104.498 6.11585 103.129 9.71662 103.932 13.9252C104.2 15.3245 104.854 16.4282 106.336 16.8376L106.306 16.8136C107.561 18.4273 109.223 18.4216 110.993 17.9907L110.996 17.9934Z" fill="#55463D"/>
<path d="M106.338 16.8401C108.179 11.7868 110.879 6.9897 110.952 1.32455C111.608 1.53144 111.638 2.1173 111.654 2.66549C111.687 3.84558 111.461 5.00664 111.078 6.10443C109.922 9.40866 108.698 12.6919 107.497 15.9831C107.299 16.5199 107.166 17.1884 106.314 16.8187L106.341 16.8428L106.338 16.8401Z" fill="#55463D"/>
<path d="M110.223 16.3696C109.454 15.0482 111.922 7.32803 114.211 4.95799C112.8 8.99137 111.484 12.7591 110.223 16.3696Z" fill="#55463D"/>
<path d="M119.569 48.0138C117.157 53.1297 113.254 54.8493 108.991 52.8395C104.728 50.8298 103.227 45.0532 105.639 39.9373C108.05 34.8214 113.461 32.3033 117.725 34.3131C121.988 36.3229 121.98 42.8978 119.569 48.0138Z" fill="#A67D59" fill-opacity="0.7"/>
<path d="M111.049 51.4644C112.963 51.5095 114.498 50.8445 115.764 49.6468C118.497 47.0619 120.405 40.1197 116.562 35.7791C115.062 34.0835 111.817 33.2705 109.763 34.2194C103.993 36.883 102.528 46.5964 107.368 50.9949C110.063 46.1321 110.783 40.9053 110.762 35.4783C111.713 38.2172 111.144 40.9562 110.719 43.6702C110.288 46.435 109.288 49.0366 108.018 51.4451C108.565 52.0643 109.24 51.7672 109.754 52.0393C109.181 52.8053 107.745 52.6512 106.871 51.7495C102.186 46.91 102.746 38.5019 108.022 34.4675C111.039 32.16 115.141 32.8396 117.481 35.8061C120.972 40.2347 119.254 47.2547 116.273 50.1196C114.716 51.6164 112.814 52.4784 110.362 51.9974C110.827 46.489 112.655 41.552 115.109 36.8023C113.513 41.5382 111.724 46.2133 111.047 51.4632L111.049 51.4644Z" fill="#55463D"/>
<path d="M100.148 69.6403C99.9502 74.5381 97.3405 77.2253 93.1321 77.0553C88.9236 76.8854 85.6724 72.7772 85.8701 67.8794C86.0679 62.9816 88.4723 59.1826 92.6807 59.3525C96.8891 59.5224 100.346 64.7425 100.148 69.6403Z" fill="#A67D59" fill-opacity="0.7"/>
<path d="M99.722 71.0323C100.173 73.0689 99.0305 74.4194 97.2505 75.5998C95.122 77.0097 93.0692 76.5046 91.1758 75.4593C86.6083 72.9419 84.4042 68.2178 85.1389 63.0452C85.3604 61.4894 86.3922 60.598 87.7211 60.0038C88.1614 59.8066 88.6773 59.7391 89.1662 59.704C95.4084 59.2529 99.4005 62.8967 99.7193 69.3279C99.7436 69.8222 99.722 70.3192 99.722 71.0296V71.0323ZM97.7367 74.1655C98.6577 73.8171 98.936 73.1013 99.017 72.1721C99.2385 69.5899 98.6875 67.1995 97.6151 64.8495C95.5488 60.3279 93.2367 59.8526 88.3559 60.5467C86.9486 60.7466 85.9681 62.035 85.7818 63.4909C85.1875 68.1367 87.4915 72.6637 91.5972 74.9218C93.7661 76.1157 96.1431 75.8213 97.7502 74.1628H97.7394L97.7367 74.1655Z" fill="#55463D"/>
<path d="M88.3506 61.6001C90.6087 63.029 94.5198 71.3996 94.1822 73.944C92.4157 69.7465 91.157 65.306 88.3506 61.6001Z" fill="#55463D"/>
<path d="M97.7502 74.1656C97.2532 74.3115 96.8481 74.3466 96.4915 73.801C94.2713 70.4112 93.1071 66.5918 91.9456 62.7671C91.8943 62.6024 91.9943 62.4187 92.3076 62.335C92.8667 62.5402 92.7965 63.1804 92.9342 63.6315C94.0309 67.1996 95.2355 70.7164 97.3694 73.8334C97.4666 73.9766 97.5098 74.1629 97.734 74.1656H97.7475H97.7502Z" fill="#55463D"/>
</svg>
