<svg width="105" height="75" viewBox="0 0 105 75" fill="none" xmlns="http://www.w3.org/2000/svg">
<g id="3d0d6f05-24a7-4ea2-a694-b5297f79bdf9">
<path id="Vector" d="M100.304 20.6955C99.6492 20.0416 96.9367 18.786 96.2864 17.1473C94.4602 11.9725 88.143 10.4692 88.143 10.4692L88.1331 0.792458C85.4493 1.82073 81.8663 5.24176 78.1681 9.51545C77.5324 9.47247 76.8945 9.47066 76.2586 9.51004C71.6911 9.82943 67.7707 12.2416 65.3532 15.733C59.2616 11.4093 52.757 8.55468 42.594 9.62917C21.0798 11.9102 10.2752 27.3078 7.80537 47.7338C3.12127 52.0315 3.20219 56.4477 3.75186 58.8481C5.42314 66.1677 14.562 70.9311 20.5161 71.973C38.3887 75.1052 55.9364 66.5726 65.2178 50.2461C65.7914 49.1961 65.9296 47.9629 65.6025 46.812C65.2755 45.6612 64.5095 44.6849 63.4694 44.0935C62.4294 43.5022 61.1987 43.343 60.0425 43.6504C58.8863 43.9578 57.8971 44.7072 57.2881 45.737C49.9345 58.6723 36.119 65.4456 22.0887 62.9873C18.1897 62.3034 13.5782 59.3624 12.7388 57.1072L13.912 57.318L45.2647 55.1257C49.0949 52.411 52.4121 48.7916 54.9149 44.3886C56.9011 40.8883 61.3683 39.6644 64.8646 41.6509C68.3601 43.6394 69.5907 48.1021 67.6024 51.6006C67.2036 52.2925 66.7902 52.976 66.3624 53.6504L85.2838 52.3272C85.1995 52.1792 85.3608 52.2569 85.3608 52.2569C85.1872 52.0321 83.2323 49.4181 82.8187 46.3206C82.0339 40.4563 85.6438 35.3052 85.6438 35.3052L85.6804 35.2436C98.173 36.537 100.303 28.6018 100.723 24.7843C100.918 23.0194 101.437 21.3499 100.304 20.6955ZM89.8268 20.0678C89.5998 20.089 89.371 20.0645 89.1536 19.996C88.9363 19.9274 88.7349 19.816 88.5612 19.6684C88.3875 19.5209 88.2452 19.34 88.1424 19.1366C88.0397 18.9332 87.9787 18.7113 87.963 18.4839C87.9473 18.2565 87.9772 18.0283 88.051 17.8127C88.1248 17.5971 88.241 17.3984 88.3927 17.2284C88.5445 17.0583 88.7287 16.9203 88.9345 16.8225C89.1404 16.7247 89.3637 16.6691 89.5914 16.6589C90.037 16.6389 90.4729 16.794 90.8057 17.091C91.1386 17.388 91.3421 17.8034 91.3729 18.2484C91.4036 18.6935 91.2591 19.1329 90.9702 19.4729C90.6813 19.8128 90.2709 20.0263 89.8268 20.0678Z" fill="#FEFEFE"/>
</g>
</svg>
