<svg width="257" height="57" viewBox="0 0 257 57" fill="none" xmlns="http://www.w3.org/2000/svg">
<path d="M39.7939 55.5205H33.9704C32.9487 53.7496 31.7568 51.7743 30.3946 49.5948C29.0323 47.3812 27.5679 45.0995 26.0014 42.7496C24.4008 40.3998 22.7661 37.9989 21.0974 35.5469C19.3946 33.1289 17.7089 30.7791 16.0402 28.4974C14.3714 26.2497 12.7538 24.1213 11.1872 22.112C9.62069 20.1027 8.1563 18.3318 6.79408 16.7993V55.5205H0V5.96966H5.51699C7.76466 8.35355 10.1656 11.1291 12.7197 14.2962C15.2739 17.4634 17.794 20.7157 20.2801 24.0531C22.8002 27.4246 25.167 30.728 27.3806 33.9633C29.5942 37.2326 31.4673 40.1274 32.9998 42.6475V5.96966H39.7939V55.5205ZM51.0833 1.16784H58.0306V4.74366C58.0306 7.05944 57.8774 9.49441 57.5709 12.0486C57.2984 14.6027 56.9408 17.1399 56.4981 19.66H52.5647C52.156 17.1399 51.7985 14.6027 51.492 12.0486C51.2195 9.49441 51.0833 7.02539 51.0833 4.6415V1.16784ZM77.5444 50.7186C80.2689 50.7186 82.2781 50.361 83.5723 49.6459C84.9004 48.9307 85.5645 47.7898 85.5645 46.2233C85.5645 44.5886 84.9174 43.2945 83.6233 42.341C82.3292 41.3874 80.2008 40.3147 77.2379 39.1227C75.8076 38.5438 74.4454 37.9648 73.1513 37.3859C71.8231 36.7729 70.6822 36.0747 69.7287 35.2915C68.7751 34.4741 68.0259 33.4865 67.481 32.3286C66.9021 31.2048 66.6126 29.8085 66.6126 28.1398C66.6126 24.8364 67.8216 22.2141 70.2395 20.273C72.6915 18.3659 76.0119 17.4123 80.2008 17.4123C81.2565 17.4123 82.2952 17.4634 83.3168 17.5656C84.3726 17.7018 85.3602 17.855 86.2797 18.0253C87.1651 18.1615 87.9654 18.3318 88.6806 18.5362C89.3617 18.7405 89.8896 18.9108 90.2642 19.047L89.0382 24.7683C88.323 24.3937 87.2162 24.0021 85.7178 23.5934C84.1852 23.1847 82.3463 22.9804 80.2008 22.9804C78.3277 22.9804 76.7101 23.338 75.3478 24.0531C73.9516 24.8024 73.2534 25.9603 73.2534 27.5268C73.2534 28.3441 73.4067 29.0593 73.7132 29.6723C74.0197 30.3194 74.4965 30.8813 75.1435 31.3581C75.7906 31.8689 76.5909 32.3457 77.5444 32.7884C78.498 33.1971 79.6388 33.6398 80.967 34.1166C82.7379 34.7977 84.3215 35.4618 85.7178 36.1088C87.08 36.7559 88.2549 37.5051 89.2425 38.3565C90.2301 39.2079 90.9793 40.2466 91.4902 41.4725C92.001 42.6645 92.2564 44.1459 92.2564 45.9168C92.2564 49.3564 90.9964 51.9617 88.4763 53.7325C85.9221 55.5034 82.2781 56.3889 77.5444 56.3889C74.241 56.3889 71.6699 56.0994 69.8309 55.5205C67.9578 54.9756 66.6977 54.5669 66.0507 54.2945L67.2256 48.5731C68.0089 48.8456 69.2349 49.2713 70.9036 49.8502C72.5723 50.4291 74.7859 50.7186 77.5444 50.7186ZM139.049 56.5932C135.575 56.5932 132.408 56.0143 129.547 54.8564C126.687 53.7325 124.235 52.0638 122.191 49.8502C120.114 47.6707 118.53 44.9632 117.44 41.728C116.317 38.5267 115.755 34.8487 115.755 30.694C115.755 26.5392 116.385 22.8612 117.645 19.66C118.905 16.4247 120.608 13.7173 122.753 11.5377C124.899 9.32413 127.402 7.65541 130.262 6.53158C133.123 5.37369 136.171 4.79475 139.406 4.79475C141.45 4.79475 143.306 4.948 144.974 5.2545C146.609 5.52694 148.039 5.85047 149.265 6.22508C150.457 6.59969 151.445 6.99133 152.228 7.4C152.977 7.77461 153.488 8.04705 153.761 8.21733L151.768 13.9387C151.36 13.6662 150.747 13.3597 149.929 13.0192C149.112 12.6786 148.193 12.3551 147.171 12.0486C146.149 11.708 145.025 11.4356 143.799 11.2312C142.573 10.9929 141.347 10.8737 140.121 10.8737C137.499 10.8737 135.132 11.3334 133.021 12.2529C130.943 13.1384 129.156 14.4495 127.657 16.1863C126.193 17.8891 125.069 19.9665 124.286 22.4185C123.502 24.8705 123.111 27.629 123.111 30.694C123.111 33.6568 123.451 36.3472 124.132 38.7651C124.813 41.2171 125.852 43.3115 127.248 45.0484C128.645 46.7852 130.382 48.1304 132.459 49.084C134.502 50.0375 136.92 50.5143 139.713 50.5143C142.88 50.5143 145.519 50.1737 147.631 49.4926C149.742 48.8456 151.309 48.2496 152.33 47.7047L154.118 53.426C153.812 53.6644 153.216 53.9709 152.33 54.3455C151.479 54.6861 150.406 55.0266 149.112 55.3672C147.852 55.7078 146.354 55.9972 144.617 56.2356C142.914 56.474 141.058 56.5932 139.049 56.5932ZM174.245 50.7186C175.812 50.7186 177.208 50.6846 178.434 50.6165C179.626 50.5483 180.631 50.4121 181.448 50.2078V39.1227C180.971 38.8843 180.205 38.68 179.149 38.5097C178.059 38.3394 176.748 38.2543 175.216 38.2543C174.228 38.2543 173.172 38.3394 172.049 38.5097C170.925 38.6459 169.903 38.9354 168.984 39.3781C168.064 39.8209 167.281 40.4339 166.634 41.2171C166.021 42.0345 165.714 43.0732 165.714 44.3332C165.714 46.7171 166.48 48.3858 168.013 49.3394C169.545 50.2589 171.623 50.7186 174.245 50.7186ZM173.683 17.4123C176.34 17.4123 178.587 17.7529 180.426 18.434C182.265 19.1151 183.747 20.0857 184.87 21.3457C185.994 22.6058 186.795 24.1213 187.271 25.8921C187.748 27.629 187.986 29.5361 187.986 31.6135V54.8564C187.408 54.9585 186.607 55.0948 185.586 55.265C184.564 55.4353 183.406 55.5886 182.112 55.7248C180.818 55.861 179.422 55.9972 177.923 56.1335C176.425 56.2356 174.926 56.2867 173.428 56.2867C171.35 56.2867 169.426 56.0824 167.655 55.6737C165.884 55.231 164.352 54.5499 163.058 53.6304C161.798 52.6768 160.81 51.4508 160.095 49.9524C159.38 48.4199 159.022 46.5809 159.022 44.4354C159.022 42.392 159.431 40.6212 160.248 39.1227C161.1 37.6583 162.241 36.4664 163.671 35.5469C165.101 34.6614 166.77 33.9974 168.677 33.5546C170.584 33.1119 172.576 32.8906 174.654 32.8906C175.335 32.8906 176.033 32.9246 176.748 32.9927C177.463 33.0949 178.144 33.1971 178.792 33.2992C179.439 33.4354 180 33.5376 180.477 33.6057C180.954 33.7079 181.278 33.793 181.448 33.8611V31.9711C181.448 30.8813 181.329 29.7915 181.09 28.7017C180.852 27.646 180.426 26.7095 179.813 25.8921C179.2 25.0408 178.349 24.3596 177.259 23.8488C176.203 23.372 174.807 23.1336 173.07 23.1336C170.891 23.1336 168.984 23.2869 167.349 23.5934C165.68 23.8999 164.454 24.2234 163.671 24.564L162.854 19.047C163.705 18.6724 165.135 18.2978 167.145 17.9232C169.154 17.5826 171.333 17.4123 173.683 17.4123ZM213.477 -0.00708008C215.452 -0.00708008 217.138 0.146169 218.534 0.452669C219.931 0.725113 220.918 0.98053 221.497 1.21892L220.271 6.94025C219.726 6.6678 218.926 6.39536 217.87 6.12291C216.814 5.85047 215.52 5.71425 213.988 5.71425C210.889 5.71425 208.726 6.56564 207.5 8.26841C206.24 9.97119 205.61 12.2529 205.61 15.1136V18.3318H219.914V23.8999H205.61V55.5205H198.969V14.9603C198.969 10.1925 200.144 6.51455 202.494 3.92633C204.81 1.30406 208.471 -0.00708008 213.477 -0.00708008ZM224.511 36.9772C224.511 33.7079 224.988 30.8472 225.941 28.3952C226.895 25.9092 228.155 23.8658 229.722 22.2652C231.288 20.6306 233.11 19.4046 235.187 18.5872C237.231 17.804 239.325 17.4123 241.471 17.4123C246.477 17.4123 250.308 18.9618 252.964 22.0609C255.655 25.194 257 29.9618 257 36.3642C257 36.6367 257 36.9942 257 37.437C257 37.9137 256.966 38.3394 256.898 38.7141H231.458C231.731 42.5623 232.855 45.4911 234.83 47.5004C236.771 49.5097 239.819 50.5143 243.974 50.5143C246.29 50.5143 248.248 50.31 249.848 49.9013C251.449 49.4926 252.658 49.101 253.475 48.7264L254.395 54.2945C253.577 54.7372 252.164 55.1969 250.155 55.6737C248.112 56.1505 245.813 56.3889 243.259 56.3889C240.023 56.3889 237.214 55.8951 234.83 54.9075C232.48 53.9198 230.539 52.5746 229.006 50.8719C227.474 49.135 226.35 47.0917 225.635 44.7419C224.886 42.392 224.511 39.8038 224.511 36.9772ZM231.612 33.3503H250.053C250.087 30.3534 249.338 27.8844 247.805 25.9432C246.238 24.0021 244.093 23.0315 241.369 23.0315C239.87 23.0315 238.525 23.338 237.333 23.951C236.175 24.5299 235.187 25.2962 234.37 26.2497C233.553 27.2033 232.923 28.3101 232.48 29.5701C232.037 30.7961 231.748 32.0562 231.612 33.3503Z" fill="#FEFEFE"/>
</svg>
